<svg width="66" height="65" viewBox="0 0 66 65" fill="none" xmlns="http://www.w3.org/2000/svg">
<g clip-path="url(#clip0)">
<path d="M1.4447 53.4312C1.47214 53.4083 1.50415 53.3899 1.53159 53.3716C2.4416 52.7615 4.28908 53.1927 4.97959 54.0963C5.32714 53.6605 4.49486 51.5917 6.23716 43.2844C7.97945 34.9771 14.4319 28.9633 19.3981 27.4771C24.3689 25.9908 29.9388 26.9954 33.7206 29.5413C34.7495 30.2339 39.8347 32.4679 42.4138 31.1605C43.5891 30.5642 44.2064 27.7798 44.3802 26.9908C44.554 26.2018 41.5907 21.8303 41.1562 20.5183C40.7218 19.2064 40.548 13 39.9353 11.6881C39.3271 10.3761 37.2189 4.91284 38.7875 3.07798C40.356 1.24312 43.333 3.99083 43.333 3.99083C43.333 3.99083 42.7979 1.35321 44.3116 0C47.0325 0 49.9638 5.2156 51.0933 8.7156C52.2274 12.211 50.6589 23.9312 50.6589 23.9312C51.9667 23.7569 54.6693 24.4541 54.6693 24.4541C57.4497 25.0642 60.3444 26.3716 61.6705 29.1789C64.7115 32.7982 66.0103 32.7982 66.0057 35.1055C66.0057 36.7706 63.3077 40.6743 63.3077 40.6743C60.0974 43.6651 56.1555 43.9495 55.7165 44.1239C55.2821 44.2982 53.3615 46.6605 53.2746 49.633C53.1877 52.6055 49.4379 55.3165 49.4379 55.3165C49.4379 55.3165 49.4379 55.9266 50.3982 56.9771C51.3539 58.0275 56.4985 59.8624 57.2851 60.0367C58.067 60.211 59.2011 62.2248 59.2011 62.2248C58.5015 63.1881 56.4116 62.4862 56.4116 62.4862L56.7592 63.4908C56.3247 64.3211 47.1697 63.6238 46.3877 63.4908C45.6057 63.3578 43.6851 61.8761 42.3772 61C41.0694 60.1238 34.0865 59.8991 31.6857 61.3394C33.5423 62.2569 32.4493 63.578 32.4493 63.578C32.4493 63.578 32.4493 64.656 26.7743 63.3578C25.5899 63.0871 14.7429 63.0963 7.50844 61.6101C2.50563 60.5826 1.31208 58.6972 1.19319 56.5C0.799913 55.0183 1.06972 53.7339 1.4447 53.4312Z" fill="#5CBFB7"/>
</g>
<defs>
<clipPath id="clip0">
<rect width="66" height="65" fill="white"/>
</clipPath>
</defs>
</svg>
