<svg width="55" height="65" viewBox="0 0 55 65" fill="none" xmlns="http://www.w3.org/2000/svg">
<g clip-path="url(#clip0)">
<path d="M50.6804 38.822C48.8335 39.3947 45.1081 40.4329 44.1194 39.7483C43.1263 39.0591 43.8723 38.7593 43.8723 38.7593C43.8723 38.7593 51.2287 39.3008 53.0262 38.0434C54.8193 36.7815 55.8079 32.6424 54.1542 27.1026C54.1542 27.1026 54.4508 24.4223 51.2017 21.2631C47.9527 18.0995 45.3912 17.1553 45.3912 17.1553C45.3912 17.1553 44.0431 7.70467 39.9672 5.44493C35.8912 3.18967 34.3499 3.11807 34.3499 3.11807C34.3499 3.11807 29.1865 -0.443819 26.7328 0.0439276C24.2792 0.536148 30.274 8.80098 30.3818 10.1747C30.4897 11.5485 34.251 19.4464 37.527 20.3816C37.527 20.3816 36.9563 22.1983 36.4575 22.5518C35.9587 22.9098 35.4598 26.861 33.6668 26.8386C31.8738 26.8163 30.6604 28.6464 29.0337 29.1655C27.4069 29.6846 13.6198 23.7108 4.85685 34.7992C-5.70815 48.1742 4.24569 57.5711 4.24569 57.5711C4.24569 57.5711 1.57635 56.7522 1.33369 56.345C1.33369 56.345 -0.140289 57.5935 4.42544 62.8334C7.34194 66.1805 12.6761 64.7396 13.2828 64.3548C13.8895 63.97 22.1536 64.0684 23.9736 64.319C25.7936 64.5696 41.5714 64.2832 43.4768 61.5984C43.4768 61.5984 43.1757 59.455 41.8546 59.3163C41.8546 59.3163 45.7148 59.2939 45.935 58.305C46.1552 57.3161 44.1734 55.4769 41.8051 55.3606C39.4324 55.2487 36.7855 55.902 36.7855 55.902C36.7855 55.902 38.7763 53.5439 37.4281 51.4273C37.4281 51.4273 39.1987 48.6574 40.3536 48.1384C41.513 47.6193 43.7734 46.8228 44.7666 45.646C45.7597 44.4646 51.0534 44.5541 52.8465 42.8269C54.6395 41.0996 54.1452 40.057 54.1452 40.057C54.1452 40.057 52.5274 38.2492 50.6804 38.822Z" fill="#5CBFB7"/>
</g>
<defs>
<clipPath id="clip0">
<rect width="55" height="65" fill="white"/>
</clipPath>
</defs>
</svg>
