<svg width="70" height="65" viewBox="0 0 70 65" fill="none" xmlns="http://www.w3.org/2000/svg">
<g clip-path="url(#clip0)">
<path d="M69.9936 33.6961C69.8669 31.4383 68.6006 31.5111 65.4346 28.1426C63.9828 25.4661 61.0927 24.3554 58.3474 23.9138C58.3474 23.9138 55.6745 23.3812 54.4081 23.627C54.4081 23.627 55.281 12.0786 53.9784 8.72371C52.6759 5.36887 51.1517 1.85016 48.4968 2.00493C45.8419 2.1597 46.1495 4.54496 46.1495 4.54496C46.1495 4.54496 43.4675 3.84394 42.0383 5.72848C40.6136 7.61302 42.5946 11.0179 43.264 12.2652C43.9333 13.5124 44.4489 19.5757 44.9464 20.8321C45.4439 22.0885 48.5782 26.1989 48.4516 26.9773C48.3249 27.7557 47.4927 30.0955 46.7691 31.1652C45.0233 33.7416 43.0423 34.3926 39.1256 31.98C35.331 29.6403 22.9702 27.0638 16.2539 30.4505C11.4643 32.8676 5.61633 36.1405 4.72987 44.753C4.10572 50.7981 5.86508 52.9557 5.67513 55.2135C4.94244 53.5429 3.81174 53.2971 3.00217 54.03C2.19259 54.7629 -1.61559 63.6302 13.8478 64.2629C21.0526 64.5588 24.0512 64.4541 25.2226 64.6499C30.8308 65.5967 30.5459 64.3403 30.5459 64.3403C30.5459 64.3403 30.7675 63.1432 29.2705 62.3739C31.5319 60.8307 44.3811 59.3422 45.7062 60.1206C47.0314 60.9036 50.4099 63.0567 51.1833 63.1432C51.9567 63.2296 62.5807 63.5164 62.9607 62.6788L62.1782 61.0174C62.1782 61.0174 64.2587 61.5818 64.8828 60.6031C64.8828 60.6031 64.8195 58.0631 62.5853 57.6762C61.8119 57.5442 56.9996 56.9433 56.0046 55.9737C55.0096 54.9996 54.9779 54.4033 54.9779 54.4033C54.9779 54.4033 58.4786 51.54 58.3972 48.6267C58.3158 45.7135 60.0525 43.2963 60.4686 43.1006C60.8847 42.9049 64.711 42.4041 67.6734 39.2951C67.6779 39.2951 70.0886 35.3212 69.9936 33.6961Z" fill="#5CBFB7"/>
</g>
<defs>
<clipPath id="clip0">
<rect width="70" height="65" fill="white"/>
</clipPath>
</defs>
</svg>
