<svg width="65" height="64" viewBox="0 0 65 64" fill="none" xmlns="http://www.w3.org/2000/svg">
<g clip-path="url(#clip0)">
<path d="M0.443357 53.4312C0.470794 53.4083 0.502805 53.3899 0.530243 53.3716C1.44026 52.7615 3.28774 53.1927 3.97825 54.0963C4.3258 53.6605 3.49352 51.5917 5.23581 43.2844C6.97811 34.9771 13.4306 28.9633 18.3968 27.4771C23.3676 25.9908 28.9374 26.9954 32.7193 29.5413C33.7482 30.2339 38.8333 32.4679 41.4125 31.1605C42.5877 30.5642 43.2051 27.7798 43.3788 26.9908C43.5526 26.2018 40.5893 21.8303 40.1549 20.5183C39.7205 19.2064 39.5467 13 38.9339 11.6881C38.3257 10.3761 36.2176 4.91284 37.7861 3.07798C39.3546 1.24312 42.3316 3.99083 42.3316 3.99083C42.3316 3.99083 41.7966 1.35321 43.3102 0C46.0312 0 48.9624 5.2156 50.0919 8.7156C51.226 12.211 49.6575 23.9312 49.6575 23.9312C50.9654 23.7569 53.668 24.4541 53.668 24.4541C56.4484 25.0642 59.343 26.3716 60.6692 29.1789C63.7102 32.7982 65.0089 32.7982 65.0043 35.1055C65.0043 36.7706 62.3063 40.6743 62.3063 40.6743C59.0961 43.6651 55.1542 43.9495 54.7152 44.1239C54.2808 44.2982 52.3601 46.6605 52.2732 49.633C52.1864 52.6055 48.4365 55.3165 48.4365 55.3165C48.4365 55.3165 48.4365 55.9266 49.3969 56.9771C50.3526 58.0275 55.4972 59.8624 56.2837 60.0367C57.0657 60.211 58.1998 62.2248 58.1998 62.2248C57.5001 63.1881 55.4103 62.4862 55.4103 62.4862L55.7578 63.4908C55.3234 64.3211 46.1683 63.6238 45.3864 63.4908C44.6044 63.3578 42.6838 61.8761 41.3759 61C40.068 60.1238 33.0851 59.8991 30.6843 61.3394C32.5409 62.2569 31.448 63.578 31.448 63.578C31.448 63.578 31.448 64.656 25.773 63.3578C24.5886 63.0871 13.7415 63.0963 6.5071 61.6101C1.50428 60.5826 0.310741 58.6972 0.191844 56.5C-0.20143 55.0183 0.0683743 53.7339 0.443357 53.4312Z" fill="#5CBFB7"/>
</g>
<defs>
<clipPath id="clip0">
<rect width="65" height="64" fill="white"/>
</clipPath>
</defs>
</svg>
