<svg width="37" height="81" viewBox="0 0 37 81" fill="none" xmlns="http://www.w3.org/2000/svg">
<g clip-path="url(#clip0)">
<path d="M36.8807 57.6076C35.9407 51.4339 37.3107 48.9786 33.01 43.9486C33.01 43.9486 36.0515 39.93 28.9752 26.5448C28.9752 26.5448 29.0772 21.325 30.5802 16.6483C32.0833 11.9717 28.891 -0.185819 26.8248 -0.000342584C24.7587 0.185133 23.2556 10.2892 21.9432 12.5325C21.7792 12.8107 21.6461 13.1685 21.5442 13.5836C19.6864 10.7308 17.7976 8.39024 17.2966 7.56001C16.2946 5.89514 9.60839 3.23224 9.60839 3.23224C9.60839 3.23224 8.93889 14.2195 13.621 17.8848C16.166 19.8721 18.343 23.7317 19.8061 26.8407C18.7376 26.9069 17.5981 27.1233 16.8709 27.6842C15.1817 28.9913 10.1094 34.7941 8.60636 35.9158C7.1033 37.0374 7.66639 41.904 8.60636 42.2749C9.54632 42.6459 11.0494 44.3328 11.0494 44.3328C11.0494 44.3328 11.0494 44.3328 8.98323 46.5762C6.91708 48.8196 3.34788 55.5541 2.59857 56.115C1.84926 56.6758 -2.84613 71.1827 2.59857 74.2165C2.59857 74.2165 1.6586 79.4982 3.16166 79.8691C4.66472 80.2445 10.3001 80.2445 10.1094 79.8691C9.92319 79.4938 11.0494 77.4359 11.0494 77.4359L15.931 77.8112C15.931 77.8112 15.3679 79.1184 16.6803 80.1473C17.9927 81.1763 22.5019 81.3618 23.2556 80.1473C24.0049 78.9329 24.3818 79.1184 25.8848 80.0546C27.3879 80.9908 29.4541 81.1763 31.5202 79.8691C31.5202 79.8691 33.7726 79.8691 29.8309 75.1925C29.8309 75.1925 31.3029 71.4521 32.1631 70.1405C33.0188 68.8377 37.8206 63.7813 36.8807 57.6076Z" fill="#5CBFB7"/>
</g>
<defs>
<clipPath id="clip0">
<rect width="37" height="81" fill="white"/>
</clipPath>
</defs>
</svg>
