<svg width="103" height="81" viewBox="0 0 103 81" fill="none" xmlns="http://www.w3.org/2000/svg">
<g clip-path="url(#clip0)">
<path d="M101.562 47.9276C98.925 45.5724 86.4757 47.4907 84.3974 46.7375C82.319 45.9885 82.7503 42.9343 82.8201 41.8982C82.8941 40.8621 83.3335 37.4 86.525 37.2835C89.7205 37.167 94.0332 34.4706 94.2098 32.0863C94.3864 29.702 90.4352 24.6754 89.6958 22.703C88.9565 20.7306 86.028 19.1536 86.028 19.1536C84.574 16.0744 84.385 10.7981 83.12 9.57889C77.7599 4.40664 77.4108 2.69643 73.9359 1.11937C71.7796 0.141513 72.1287 3.22073 74.2563 7.87284C75.7678 11.1809 76.5112 12.5541 76.5112 12.5541C72.4285 6.98652 63.8565 -2.95435 62.382 0.844739C60.9115 4.64382 67.8981 15.9412 73.135 19.5406C73.5827 21.9915 70.4734 25.2413 70.4734 25.2413C70.4734 25.2413 63.8729 29.4939 61.7864 30.9878C59.704 32.4816 52.2327 35.0989 39.3151 33.5552C33.6593 32.8811 29.6833 33.6758 26.8986 35.0989C25.9991 33.5676 21.1852 32.7479 21.1852 32.7479C21.1852 32.7479 20.1091 32.7937 18.1088 38.432C16.8479 41.9855 19.1562 42.8594 20.7088 43.5709C20.6349 45.3061 21.7849 45.0273 19.2589 47.9026C16.125 51.4687 10.0379 48.0649 9.83252 50.7613C9.62716 53.4577 4.7887 61.5927 1.83551 64.6095C-1.11767 67.6263 0.0611389 72.0453 1.39603 73.069C2.73092 74.0926 4.21778 73.5475 4.21778 73.5475C4.21778 73.5475 2.78431 74.7917 2.92807 77.7128C3.07183 80.6339 5.06389 81 5.06389 81C9.40536 80.6214 16.5686 65.7413 19.1644 63.8272C21.7562 61.9131 27.7241 64.3265 34.1152 65.0131C40.5062 65.6997 43.443 57.1819 45.2297 56.1624C47.0164 55.143 54.2412 56.8656 58.1514 57.7062C61.9425 58.5218 72.1082 52.717 75.8705 53.3162C75.9609 53.362 76.0676 53.3911 76.2073 53.3911C76.7207 53.5492 77.2547 53.6117 77.8009 53.6158C82.5696 54.4647 95.4256 57.444 97.085 57.6022C98.5595 57.7395 98.0872 54.5188 96.3128 52.2052C97.7093 52.2427 98.9415 52.251 100.096 52.2385C102.913 52.2052 104.199 50.2828 101.562 47.9276Z" fill="#5CBFB7"/>
</g>
<defs>
<clipPath id="clip0">
<rect width="103" height="81" fill="white"/>
</clipPath>
</defs>
</svg>
