<svg width="51" height="80" viewBox="0 0 51 80" fill="none" xmlns="http://www.w3.org/2000/svg">
<g clip-path="url(#clip0)">
<path d="M19.5828 78.8872C19.5828 78.8872 17.3377 78.8872 21.2666 74.2683C21.2666 74.2683 19.7994 70.574 18.942 69.2786C18.0846 67.9833 13.3028 62.9893 14.2397 56.8961C15.1767 50.7986 15.1987 45.8919 19.4856 40.9197C19.4856 40.9197 18.3675 35.2366 20.9882 33.758C20.9882 33.758 15.0927 34.1767 12.2819 36.7631C9.47561 39.3495 1.23783 40.6405 0.1153 39.9034C-1.00723 39.1663 6.47925 35.0228 7.60178 33.1779C8.72431 31.3286 14.253 26.2168 22.1195 26.2168C22.1195 26.2168 22.0179 21.0614 20.5197 16.4425C19.0215 11.8236 22.2035 -0.183799 24.263 -0.000612636C26.3224 0.182574 27.8206 10.1619 29.1287 12.3775C30.4369 14.5932 29.69 21.6154 28.5675 26.605C28.5675 26.605 32.4963 26.0511 34.1845 27.3421C35.8683 28.6331 40.9241 34.3642 42.4223 35.4721C43.9205 36.5799 43.3592 41.3864 42.4223 41.7527C41.4854 42.1191 39.9872 43.7852 39.9872 43.7852C39.9872 43.7852 39.9872 43.7852 42.0467 46.0009C44.1061 48.2166 47.6637 54.868 48.4106 55.4219C49.1575 55.9758 53.8377 70.3036 48.4106 73.3C48.4106 73.3 49.3475 78.5165 47.8494 78.8828C46.3512 79.2536 40.7341 79.2536 40.9241 78.8828C41.1098 78.5121 39.9872 76.4796 39.9872 76.4796L35.1215 76.8503C35.1215 76.8503 35.6827 78.1414 34.3746 79.1576C33.062 80.1739 28.5719 80.357 27.8206 79.1576C27.0737 77.9582 26.6981 78.1414 25.1999 79.066C23.7017 79.995 21.6423 80.1826 19.5828 78.8872Z" fill="#5CBFB7"/>
</g>
<defs>
<clipPath id="clip0">
<rect width="51" height="80" fill="white"/>
</clipPath>
</defs>
</svg>
