<svg width="68" height="60" viewBox="0 0 68 60" fill="none" xmlns="http://www.w3.org/2000/svg">
<g clip-path="url(#clip0)">
<path d="M67.8121 33.0651C67.1811 32.1643 65.6506 29.3677 65.6506 29.3677C64.6616 22.1568 59.8911 21.5249 57.7296 20.1714C55.5681 18.818 52.5966 19.0869 52.5966 19.0869C52.5474 18.4908 51.6792 16.1738 50.5022 14.0226C50.4038 10.8138 45.0246 2.60346 43.5613 1.7654C42.2545 1.01697 42.0442 3.47738 41.7488 4.84876C39.9632 2.80066 38.4462 0.85563 38.1866 0.429875C37.6451 -0.46645 37.0141 -0.0272505 35.2151 2.22701C33.4161 4.48126 38.5446 17.1912 39.0861 18.0964C39.6276 18.9972 43.1361 22.4257 44.1296 23.5595C45.1186 24.6979 44.5816 25.3074 44.5816 25.3074C44.5816 25.3074 43.0511 27.3958 39.3412 26.6788C35.6492 25.9617 28.2159 24.2856 28.2159 24.2856C13.8686 20.6151 7.66155 26.9073 4.77955 30.515C2.13921 33.8225 2.91341 39.8771 3.06109 40.8586C2.78811 39.5141 0.953293 40.1012 0.953293 40.1012C-1.1187 44.789 0.832463 49.7995 0.832463 49.7995C0.201466 53.7657 0.103012 53.6357 4.65872 56.262C9.44266 59.0226 13.6269 57.8753 14.7054 57.2479C15.784 56.616 15.3767 54.6755 15.3767 54.6755C22.1297 57.3824 33.5101 54.429 35.0406 55.0609C36.5711 55.6928 37.1126 58.216 39.1801 59.3901C41.2521 60.5643 47.8216 59.7487 48.0051 59.3901C48.1841 59.0316 49.3566 58.0367 46.2956 56.7729C43.2346 55.509 42.9661 54.1601 42.9661 54.1601C44.1385 54.5231 47.0161 54.0704 47.0161 54.0704C50.1666 55.4239 56.8301 54.9713 57.6401 54.5186C58.4501 54.066 57.8191 53.1652 57.1881 51.9955C56.5571 50.8257 51.4241 49.2886 51.4241 49.2886C58.0876 47.4869 58.3561 39.8278 58.3561 39.8278C58.3561 39.8278 60.0656 39.7337 61.7751 39.8234C63.4846 39.913 65.1942 38.201 65.1942 38.201C67.4541 37.8425 68.4431 33.9659 67.8121 33.0651Z" fill="#5CBFB7"/>
</g>
<defs>
<clipPath id="clip0">
<rect width="68" height="60" fill="white"/>
</clipPath>
</defs>
</svg>
