<svg width="76" height="64" viewBox="0 0 76 64" fill="none" xmlns="http://www.w3.org/2000/svg">
<g clip-path="url(#clip0)">
<path d="M66.8771 26.067C66.8771 26.067 68.5899 27.0625 68.402 27.808C68.402 27.808 71.2909 28.0536 72.6682 30.8437C74.0456 33.6295 76.4291 39.4286 75.9327 40.308C75.4363 41.192 71.7515 44.8884 68.4915 45.3973C67.141 45.6071 63.3667 45.442 63.3667 45.442C63.3667 45.442 60.442 49.6295 57.987 50.2679C57.987 50.2679 62.3873 53.2009 64.1448 54.3393C65.9067 55.4821 67.5613 55.7143 68.089 57.25C68.6212 58.7857 62.5349 59.4018 60.4599 58.5446C58.3805 57.6875 49.8928 54.8616 48.5468 54.4955C47.2007 54.1295 42.7378 55.7277 42.219 57.0625C42.219 57.0625 47.9788 56.8884 46.5031 59.2321C45.0274 61.5759 44.0078 60.7723 44.0078 60.7723C44.0078 60.7723 45.4612 62.0491 44.379 62.4509C43.3012 62.8527 38.4045 63.9777 36.182 62.9643C33.9594 61.9509 33.4139 63.8884 32.3495 63.9866C31.2852 64.0848 30.8738 63.1607 30.762 62.3973C30.6458 61.6384 30.8425 60.7411 30.8425 60.7411C30.8425 60.7411 27.7435 59.0804 26.7463 57.8259C25.749 56.567 25.123 56.9911 24.8546 56.2232C24.5908 55.4554 23.683 51.9732 23.1017 51.4911C22.5203 51.0089 21.693 47.9554 17.0556 46.8125C12.4183 45.6696 11.4031 43.3393 10.6921 42.3973C10.6921 42.3973 6.47064 42.0446 3.66228 40.7009C0.849457 39.3571 -0.214856 38.2768 0.0310988 37.5045C0.581143 35.7991 5.299 33.3929 7.78538 35.1741C7.78538 35.1741 7.17273 33.7679 8.18338 31.7009C9.18956 29.6339 14.9673 22.8125 16.206 22.2679C17.4447 21.7232 26.2767 17.4643 34.3038 20.4196C42.3353 23.375 48.3008 32 55.3754 29.1384C58.5236 27.8661 57.741 26.3884 59.0066 25.2411C59.0066 25.2411 53.8549 10.1027 55.438 5.49554C57.0255 0.888393 59.3151 0 59.3151 0C59.3151 0 63.2906 0.611607 63.474 6.70536C63.474 6.70536 65.3388 4.20089 66.0453 5.29018C66.7519 6.37946 70.0387 12.2232 68.4915 16.0804C66.9442 19.9375 66.8771 26.067 66.8771 26.067Z" fill="#5CBFB7"/>
</g>
<defs>
<clipPath id="clip0">
<rect width="76" height="64" fill="white"/>
</clipPath>
</defs>
</svg>
