<svg width="54" height="64" viewBox="0 0 54 64" fill="none" xmlns="http://www.w3.org/2000/svg">
<g clip-path="url(#clip0)">
<path d="M49.7603 38.2254C47.9469 38.7894 44.2892 39.8115 43.3186 39.1374C42.3435 38.4589 43.0759 38.1637 43.0759 38.1637C43.0759 38.1637 50.2986 38.6969 52.0634 37.4588C53.8238 36.2163 54.7945 32.1409 53.1709 26.6864C53.1709 26.6864 53.4621 24.0473 50.2721 20.9367C47.0821 17.8217 44.5672 16.8921 44.5672 16.8921C44.5672 16.8921 43.2436 7.58684 39.2418 5.36187C35.24 3.1413 33.7266 3.0708 33.7266 3.0708C33.7266 3.0708 28.6571 -0.436288 26.2481 0.0439542C23.839 0.528602 29.7248 8.66629 29.8307 10.0189C29.9366 11.3715 33.6296 19.1479 36.846 20.0687C36.846 20.0687 36.2856 21.8575 35.7959 22.2056C35.3062 22.5581 34.8164 26.4485 33.056 26.4264C31.2955 26.4044 30.1043 28.2064 28.5071 28.7175C26.9099 29.2286 13.3735 23.3467 4.76984 34.2645C-5.60307 47.4337 4.16979 56.6861 4.16979 56.6861C4.16979 56.6861 1.54899 55.8798 1.31073 55.4789C1.31073 55.4789 -0.136442 56.7081 4.34628 61.8674C7.20975 65.1631 12.4469 63.7444 13.0426 63.3655C13.6382 62.9865 21.7521 63.0835 23.539 63.3302C25.3259 63.5769 40.8169 63.295 42.6876 60.6514C42.6876 60.6514 42.392 58.541 41.0949 58.4044C41.0949 58.4044 44.8849 58.3824 45.1011 57.4087C45.3173 56.435 43.3715 54.6242 41.0463 54.5096C38.7167 54.3995 36.118 55.0427 36.118 55.0427C36.118 55.0427 38.0726 52.7208 36.7489 50.6368C36.7489 50.6368 38.4873 47.9096 39.6212 47.3985C40.7595 46.8874 42.9788 46.1032 43.9539 44.9444C44.929 43.7813 50.1265 43.8694 51.8869 42.1687C53.6474 40.468 53.162 39.4414 53.162 39.4414C53.162 39.4414 51.5737 37.6615 49.7603 38.2254Z" fill="#5CBFB7"/>
</g>
<defs>
<clipPath id="clip0">
<rect width="54" height="64" fill="white"/>
</clipPath>
</defs>
</svg>
