<svg width="65" height="64" viewBox="0 0 65 64" fill="none" xmlns="http://www.w3.org/2000/svg">
<g clip-path="url(#clip0)">
<path d="M0.443235 53.4312C0.470672 53.4083 0.502683 53.3899 0.530121 53.3716C1.44014 52.7615 3.28761 53.1927 3.97813 54.0963C4.32567 53.6605 3.4934 51.5917 5.23569 43.2844C6.97799 34.9771 13.4304 28.9633 18.3967 27.4771C23.3675 25.9908 28.9373 26.9954 32.7192 29.5413C33.7481 30.2339 38.8332 32.4679 41.4123 31.1605C42.5876 30.5642 43.2049 27.7798 43.3787 26.9908C43.5525 26.2018 40.5892 21.8303 40.1548 20.5183C39.7204 19.2064 39.5466 13 38.9338 11.6881C38.3256 10.3761 36.2175 4.91284 37.786 3.07798C39.3545 1.24312 42.3315 3.99083 42.3315 3.99083C42.3315 3.99083 41.7965 1.35321 43.3101 0C46.031 0 48.9623 5.2156 50.0918 8.7156C51.2259 12.211 49.6574 23.9312 49.6574 23.9312C50.9653 23.7569 53.6679 24.4541 53.6679 24.4541C56.4482 25.0642 59.3429 26.3716 60.6691 29.1789C63.7101 32.7982 65.0088 32.7982 65.0042 35.1055C65.0042 36.7706 62.3062 40.6743 62.3062 40.6743C59.096 43.6651 55.1541 43.9495 54.7151 44.1239C54.2807 44.2982 52.36 46.6605 52.2731 49.633C52.1862 52.6055 48.4364 55.3165 48.4364 55.3165C48.4364 55.3165 48.4364 55.9266 49.3967 56.9771C50.3525 58.0275 55.4971 59.8624 56.2836 60.0367C57.0656 60.211 58.1997 62.2248 58.1997 62.2248C57.5 63.1881 55.4102 62.4862 55.4102 62.4862L55.7577 63.4908C55.3233 64.3211 46.1682 63.6238 45.3862 63.4908C44.6043 63.3578 42.6836 61.8761 41.3758 61C40.0679 60.1238 33.085 59.8991 30.6842 61.3394C32.5408 62.2569 31.4479 63.578 31.4479 63.578C31.4479 63.578 31.4479 64.656 25.7728 63.3578C24.5884 63.0871 13.7414 63.0963 6.50697 61.6101C1.50416 60.5826 0.310619 58.6972 0.191722 56.5C-0.201552 55.0183 0.0682522 53.7339 0.443235 53.4312Z" fill="#5CBFB7"/>
</g>
<defs>
<clipPath id="clip0">
<rect width="65" height="64" fill="white"/>
</clipPath>
</defs>
</svg>
