<svg width="74" height="65" viewBox="0 0 74 65" fill="none" xmlns="http://www.w3.org/2000/svg">
<path d="M65.598 28.0328C65.598 28.0328 67.1755 28.9507 67.0025 29.638C67.0025 29.638 69.6632 29.8644 70.9317 32.4368C72.2003 35.0052 74.3956 40.3517 73.9384 41.1626C73.4812 41.9775 70.0874 45.3855 67.0848 45.8547C65.841 46.0481 62.3648 45.8959 62.3648 45.8959C62.3648 45.8959 59.6712 49.7566 57.41 50.3452C57.41 50.3452 61.4628 53.0493 63.0815 54.0989C64.7042 55.1525 66.2282 55.3666 66.7142 56.7824C67.2043 58.1983 61.5987 58.7663 59.6876 57.9761C57.7725 57.1858 49.9551 54.5804 48.7154 54.2429C47.4757 53.9054 43.3652 55.3789 42.8874 56.6096C42.8874 56.6096 48.1923 56.449 46.8332 58.6099C45.474 60.7708 44.5349 60.0299 44.5349 60.0299C44.5349 60.0299 45.8735 61.207 44.8768 61.5775C43.8842 61.9479 39.3742 62.9851 37.3272 62.0508C35.2802 61.1165 34.7777 62.9028 33.7975 62.9934C32.8172 63.0839 32.4383 62.2319 32.3353 61.5281C32.2282 60.8284 32.4095 60.0011 32.4095 60.0011C32.4095 60.0011 29.5552 58.47 28.6367 57.3134C27.7183 56.1527 27.1416 56.5437 26.8945 55.8358C26.6515 55.1278 25.8154 51.9174 25.28 51.4729C24.7445 51.0284 23.9826 48.2131 19.7115 47.1594C15.4404 46.1058 14.5054 43.9573 13.8506 43.0888C13.8506 43.0888 9.9625 42.7636 7.37596 41.5248C4.78529 40.2859 3.80504 39.2898 4.03157 38.5778C4.53817 37.0055 8.8834 34.787 11.1734 36.4293C11.1734 36.4293 10.6091 35.1328 11.54 33.2271C12.4667 31.3214 17.788 25.0323 18.9289 24.5302C20.0698 24.028 28.2043 20.1014 35.5973 22.8262C42.9945 25.5509 48.4889 33.5028 55.0047 30.8645C57.9043 29.6915 57.1835 28.3291 58.3491 27.2714C58.3491 27.2714 53.6043 13.3143 55.0623 9.06669C56.5245 4.81907 58.6333 4 58.6333 4C58.6333 4 62.2948 4.56388 62.4637 10.1821C62.4637 10.1821 64.1812 7.87307 64.8319 8.87735C65.4827 9.88164 68.5099 15.2694 67.0848 18.8255C65.6598 22.3817 65.598 28.0328 65.598 28.0328Z" fill="#5CBFB7"/>
</svg>
