<?xml version="1.0" encoding="utf-8"?>
<!-- Generator: Adobe Illustrator 25.0.1, SVG Export Plug-In . SVG Version: 6.00 Build 0)  -->
<svg version="1.1" id="Layer_1" xmlns="http://www.w3.org/2000/svg" xmlns:xlink="http://www.w3.org/1999/xlink" x="0px" y="0px"
	 viewBox="0 0 400 400" style="enable-background:new 0 0 400 400;" xml:space="preserve">
<path d="M0.1,391c0-43.3,0-86.7,0-130c0.7-0.7,1.4-1.3,2-2c7.7-10,14.9-20.4,23-29.9c13.2-15.4,30.4-25.4,48.1-34.9
	c21.1-11.4,43.4-19,66.9-23.2c10.9-1.9,21.7-4.9,32.7-5.5c11.8-0.6,21.8-4,31.3-10.9c7.6-5.5,8.5-12.2,7.5-20.4
	c-0.7-6.3-1.7-13.1-0.2-19.1c2-7.8-0.5-12.2-6.7-15.8c-1.7-1-3.3-2.2-5-3.2c-17.8-10.5-32-24.1-39.1-44.2c-1.1-3.2-3.4-6.1-5.7-8.7
	c-4.9-5.6-5.2-9.6,0.2-14.6c2.5-2.3,5.7-4,8.9-5c8.1-2.4,15.6,0.5,22.4,4.4c6.6,3.8,12.6,8.9,19,13.5c-0.1-10.5-0.9-21.2-5.1-31.5
	c-1.3-3.1-1.5-6.7-2.1-10c2.3,0,4.7,0,7,0c6.9,3.8,12.9,8.4,16.9,15.5c11.2,20,16.6,41.8,20.2,64.2c0.6,4.1,3,6,7.1,5.1
	c3.1-0.7,6-1.9,9.1-2.5c5.2-0.9,10.7-2.7,15.7-1.8c11.7,2.2,23.4,5,33.6,11.9c2.5,1.7,5.1,3.2,8,4c8.9,2.5,12.5,9.3,9.3,18.1
	c-0.8,2.2-1.4,4.4-1.8,6.7c-1.6,9.5-6.8,16.4-15.3,20.9c-2.8,1.5-5.4,3.3-8,5.1c-5.7,4-10.8,8.4-11.6,15.9c-0.5,4.6-1,9.2-1,13.9
	c0.1,14.8,0.6,29.6,0.8,44.4c0,3.4-0.5,6.8-0.9,11c10.6,1,20.8,2.8,30.9,2.6c9.5-0.2,18.8-0.6,27.9,2.9c3.8,1.5,8,2.4,12,2.9
	c7.4,1,14.9,1.3,22.3,2.3c6,0.8,11.9,2.2,15.8,7.5c1.2,1.6,2.3,4.6,1.6,5.7c-1,1.5-3.8,2-5.9,2.7c-1.1,0.4-2.5,0.1-3.6,0.5
	c-2.2,0.9-4.1,2.5-6.4,3c-12.7,3.1-24.5-0.4-36.4-4.5c-5.6-1.9-12.1-3.2-17.9-2.4c-15.4,2-30.7,5.2-46,7.8c-1.5,0.3-3.5,0.4-4.7-0.3
	c-3.3-2.2-6.1-1.7-9,0.7c-2.2,1.8-4.9,3-6.7,5.1c-5.8,6.6-12.1,12.9-16.5,20.3c-3.5,5.9,1.5,12.4,2.8,18.7c0.1,0.5,0.2,1,0.3,1.5
	c3.9,17.9,12.6,33.9,21.3,49.8c4.9,9.1,11.1,11.2,21.4,8.9c2.4-0.5,5-1.1,7.4-0.7c2.5,0.4,4.8,2,7.2,3.1c-1.4,2.2-2.4,5.1-4.4,6.5
	c-4.9,3.4-10.1,6.3-15.4,9.1c-4.3,2.3-8.9,2.9-13.2-0.1c-3.9-2.7-8.4-5.2-11.4-8.8c-7.5-9.1-14.8-18.3-21.1-28.2
	c-9-14.1-18.9-27.7-24.5-43.8c-0.9-2.5-3-5.1-5.3-6.3c-10.8-5.8-21.9-9.1-34.3-4.3c-18.8,7.3-38.1,12.5-58.5,12.6
	c-1.5,0-3.9,1.7-4.4,3.1c-4.7,12.5-13.3,22.5-21,33.1c-1.9,2.6-3.4,5.7-4.5,8.8c-1.1,3,0.2,4.9,3.6,4.8c12.9-0.4,25.9-0.6,38.8-1.4
	c9.4-0.6,18.8-2.9,28.1-2.8c5.6,0.1,11.5,2.7,16.6,5.4c2.1,1.1,2.6,5.4,3.8,8.3c-3,0.9-6,1.7-9,2.6c-0.3,0.1-0.6,0.2-0.9,0.3
	c-2.4,7.9-10.3,4-15.7,7.5c2.4,1.6,4.5,3,6.6,4.4c2.4,1.7,5.1,3.2,7.1,5.3c1,1.1,1.2,3.4,1,5c-0.1,0.6-2.4,1-3.8,1.3
	c-1.7,0.4-3.7,0.2-5.3,0.9c-4.6,1.9-9.2,4.1-13.7,6.2c-1.3,0-2.7,0-4,0c-5.4-1-10.8-2.9-16.3-2.9c-10.9-0.1-21.9,1.3-32.8,1.1
	c-14.2-0.2-28.5-1.3-42.7-2.1c-3.8-0.2-7.6-0.8-11.2-1.8c-4.1-1.1-6.7-4-5.8-8.5c1-5.3,2.5-10.4,3.8-15.8
	c-5.4-0.4-11.1-0.9-17.1-1.4C15.3,378.6,8.4,385.4,0.1,391z"/>
</svg>
