<?xml version="1.0" standalone="no"?>
<!DOCTYPE svg PUBLIC "-//W3C//DTD SVG 20010904//EN"
 "http://www.w3.org/TR/2001/REC-SVG-20010904/DTD/svg10.dtd">
<svg version="1.0" xmlns="http://www.w3.org/2000/svg"
 width="528.000000pt" height="528.000000pt" viewBox="0 0 528.000000 528.000000"
 preserveAspectRatio="xMidYMid meet">
<metadata>
Created by potrace 1.11, written by Peter Selinger 2001-2013
</metadata>
<g transform="translate(0.000000,528.000000) scale(0.100000,-0.100000)"
fill="#000000" stroke="none">
<path d="M3525 5218 c-45 -53 -64 -120 -62 -222 l2 -74 -35 28 c-179 141 -346
116 -366 -55 -10 -78 -10 -100 -2 -145 5 -25 11 -58 14 -75 3 -16 12 -55 20
-85 8 -30 16 -62 18 -71 2 -8 23 -65 46 -125 47 -122 66 -197 74 -299 3 -38 8
-81 10 -95 2 -14 7 -61 11 -105 4 -44 9 -93 11 -110 1 -16 5 -52 7 -80 9 -98
28 -140 172 -390 53 -92 93 -175 100 -203 8 -38 -27 -174 -64 -252 -35 -73
-78 -114 -137 -130 -67 -19 -196 -16 -274 5 -8 2 -31 7 -50 10 -19 3 -39 10
-45 15 -6 5 -22 11 -35 13 -26 4 -39 9 -100 35 -19 8 -37 16 -40 17 -30 10
-66 29 -111 58 -47 30 -154 88 -169 92 -3 1 -18 7 -35 14 -159 68 -340 103
-530 105 -77 0 -160 -3 -185 -7 -25 -3 -63 -9 -85 -12 -22 -3 -49 -9 -60 -12
-21 -7 -29 -9 -60 -16 -34 -8 -127 -46 -180 -74 -303 -157 -587 -459 -746
-791 -27 -56 -49 -105 -49 -108 0 -3 -6 -20 -14 -37 -15 -33 -64 -189 -71
-229 -3 -13 -7 -34 -10 -48 -3 -14 -8 -42 -10 -64 -3 -21 -7 -42 -10 -46 -2
-4 -7 -27 -10 -51 -3 -24 -8 -53 -12 -64 -3 -11 -7 -38 -9 -60 -1 -22 -3 -40
-4 -40 -11 0 -31 -238 -34 -392 -1 -67 -5 -125 -9 -129 -4 -4 -7 -2 -7 4 0 15
-77 58 -119 67 -103 22 -164 -4 -181 -74 -8 -35 -8 -176 0 -176 2 0 6 -23 15
-79 15 -98 106 -205 216 -254 75 -34 149 -62 149 -57 0 3 8 1 18 -4 11 -6 30
-12 43 -15 13 -3 35 -7 49 -10 63 -14 205 -38 305 -51 28 -3 61 -8 75 -10 14
-2 57 -7 95 -10 39 -4 81 -8 95 -10 14 -1 60 -5 103 -9 207 -17 270 -21 492
-31 179 -8 400 -22 400 -25 0 -1 9 -3 20 -5 11 -2 69 -12 128 -23 59 -10 146
-19 194 -18 81 1 86 3 107 29 13 16 23 34 23 40 0 7 2 17 3 22 7 24 -15 67
-47 94 l-34 28 30 13 c17 6 34 12 38 12 4 0 13 3 18 8 9 7 43 15 115 26 89 13
172 18 291 17 123 -1 173 -4 234 -16 11 -3 37 -7 58 -11 23 -4 90 -43 178
-102 161 -110 187 -122 267 -129 31 -3 82 -8 112 -11 113 -10 566 -14 604 -5
54 13 60 22 42 64 -14 35 -14 35 7 31 90 -19 182 -8 194 22 6 17 -50 105 -94
146 -16 15 -57 36 -93 48 -36 11 -74 24 -85 29 -11 5 -58 23 -105 41 -193 75
-308 138 -335 182 -8 15 -21 33 -29 40 -19 19 -37 78 -24 78 19 0 193 185 230
245 40 67 64 140 72 228 8 79 31 166 63 235 28 60 87 149 113 169 12 10 154
47 162 43 6 -3 184 63 192 71 6 5 18 9 27 9 10 0 19 3 21 8 2 4 20 16 41 28
21 11 71 44 110 73 61 44 80 67 126 144 30 51 60 99 66 107 6 8 29 53 50 100
31 69 39 99 41 156 3 66 1 76 -30 125 -18 30 -94 116 -169 192 -75 76 -143
152 -152 170 -80 166 -298 309 -550 361 -159 33 -180 37 -250 41 -33 2 -63 4
-66 4 -7 1 -5 29 5 91 3 19 8 60 11 90 3 30 7 75 10 100 2 25 7 79 10 120 4
41 8 91 10 110 3 19 7 100 9 179 3 79 7 145 10 148 2 2 1 17 -4 32 -4 16 -4
34 0 42 5 7 7 16 4 20 -2 4 -6 43 -9 86 -6 111 -13 147 -46 246 -43 125 -164
364 -191 375 -5 2 -8 8 -8 14 0 15 -57 86 -117 145 -60 60 -123 99 -173 108
-29 5 -39 2 -55 -17z"/>
</g>
</svg>
